<?xml version="1.0" encoding="UTF-8" standalone="no"?>
<!DOCTYPE svg PUBLIC "-//W3C//DTD SVG 1.1//EN"
 "http://www.w3.org/Graphics/SVG/1.1/DTD/svg11.dtd">
<!-- Generated by graphviz version 2.47.3 (20210619.1520)
 -->
<!-- Title: dependencies Pages: 1 -->
<svg width="598pt" height="247pt"
 viewBox="0.00 0.00 598.00 246.80" xmlns="http://www.w3.org/2000/svg" xmlns:xlink="http://www.w3.org/1999/xlink">
<g id="graph0" class="graph" transform="scale(1 1) rotate(0) translate(4 242.8)">
<title>dependencies</title>
<polygon fill="white" stroke="transparent" points="-4,4 -4,-242.8 594,-242.8 594,4 -4,4"/>
<text text-anchor="middle" x="295" y="-8.2" font-family="sans-serif" font-size="14.00">dependencies</text>
<g id="clust1" class="cluster">
<title>cluster_AppModule</title>
<polygon fill="none" stroke="black" stroke-dasharray="1,5" points="8,-32.8 8,-230.8 582,-230.8 582,-32.8 8,-32.8"/>
</g>
<g id="clust2" class="cluster">
<title>cluster_AppModule_declarations</title>
<polygon fill="none" stroke="black" points="168,-40.8 168,-92.8 574,-92.8 574,-40.8 168,-40.8"/>
</g>
<g id="clust6" class="cluster">
<title>cluster_AppModule_imports</title>
<polygon fill="none" stroke="black" points="16,-40.8 16,-92.8 160,-92.8 160,-40.8 16,-40.8"/>
</g>
<g id="clust8" class="cluster">
<title>cluster_AppModule_bootstrap</title>
<polygon fill="none" stroke="black" points="246,-170.8 246,-222.8 370,-222.8 370,-170.8 246,-170.8"/>
</g>
<!-- AppComponent -->
<g id="node1" class="node">
<title>AppComponent</title>
<polygon fill="#ffffb3" stroke="black" points="565.94,-84.8 460.06,-84.8 460.06,-48.8 565.94,-48.8 565.94,-84.8"/>
<text text-anchor="middle" x="513" y="-62.6" font-family="Times,serif" font-size="14.00">AppComponent</text>
</g>
<!-- AppModule -->
<g id="node4" class="node">
<title>AppModule</title>
<polygon fill="#8dd3c7" stroke="black" points="349.66,-149.8 346.66,-153.8 325.66,-153.8 322.66,-149.8 266.34,-149.8 266.34,-113.8 349.66,-113.8 349.66,-149.8"/>
<text text-anchor="middle" x="308" y="-127.6" font-family="Times,serif" font-size="14.00">AppModule</text>
</g>
<!-- AppComponent&#45;&gt;AppModule -->
<g id="edge1" class="edge">
<title>AppComponent&#45;&gt;AppModule</title>
<path fill="none" stroke="black" d="M513,-84.91C513,-104.14 513,-131.8 513,-131.8 513,-131.8 359.98,-131.8 359.98,-131.8"/>
<polygon fill="black" stroke="black" points="359.98,-128.3 349.98,-131.8 359.98,-135.3 359.98,-128.3"/>
</g>
<!-- ContentComponent -->
<g id="node2" class="node">
<title>ContentComponent</title>
<polygon fill="#ffffb3" stroke="black" points="441.67,-84.8 316.33,-84.8 316.33,-48.8 441.67,-48.8 441.67,-84.8"/>
<text text-anchor="middle" x="379" y="-62.6" font-family="Times,serif" font-size="14.00">ContentComponent</text>
</g>
<!-- ContentComponent&#45;&gt;AppModule -->
<g id="edge2" class="edge">
<title>ContentComponent&#45;&gt;AppModule</title>
<path fill="none" stroke="black" d="M333,-84.91C333,-84.91 333,-103.79 333,-103.79"/>
<polygon fill="black" stroke="black" points="329.5,-103.79 333,-113.79 336.5,-103.79 329.5,-103.79"/>
</g>
<!-- NavbarComponent -->
<g id="node3" class="node">
<title>NavbarComponent</title>
<polygon fill="#ffffb3" stroke="black" points="298.03,-84.8 175.97,-84.8 175.97,-48.8 298.03,-48.8 298.03,-84.8"/>
<text text-anchor="middle" x="237" y="-62.6" font-family="Times,serif" font-size="14.00">NavbarComponent</text>
</g>
<!-- NavbarComponent&#45;&gt;AppModule -->
<g id="edge3" class="edge">
<title>NavbarComponent&#45;&gt;AppModule</title>
<path fill="none" stroke="black" d="M282.22,-84.91C282.22,-84.91 282.22,-103.79 282.22,-103.79"/>
<polygon fill="black" stroke="black" points="278.72,-103.79 282.22,-113.79 285.72,-103.79 278.72,-103.79"/>
</g>
<!-- AppComponent  -->
<g id="node6" class="node">
<title>AppComponent </title>
<polygon fill="#80b1d3" stroke="black" points="362.44,-214.8 253.56,-214.8 253.56,-178.8 362.44,-178.8 362.44,-214.8"/>
<text text-anchor="middle" x="308" y="-192.6" font-family="Times,serif" font-size="14.00">AppComponent </text>
</g>
<!-- AppModule&#45;&gt;AppComponent  -->
<g id="edge5" class="edge">
<title>AppModule&#45;&gt;AppComponent </title>
<path fill="none" stroke="black" stroke-dasharray="1,5" d="M308,-149.91C308,-149.91 308,-168.79 308,-168.79"/>
<polygon fill="black" stroke="black" points="304.5,-168.79 308,-178.79 311.5,-168.79 304.5,-168.79"/>
</g>
<!-- AppRoutingModule -->
<g id="node5" class="node">
<title>AppRoutingModule</title>
<polygon fill="#8dd3c7" stroke="black" points="152.27,-84.8 149.27,-88.8 128.27,-88.8 125.27,-84.8 23.73,-84.8 23.73,-48.8 152.27,-48.8 152.27,-84.8"/>
<text text-anchor="middle" x="88" y="-62.6" font-family="Times,serif" font-size="14.00">AppRoutingModule</text>
</g>
<!-- AppRoutingModule&#45;&gt;AppModule -->
<g id="edge4" class="edge">
<title>AppRoutingModule&#45;&gt;AppModule</title>
<path fill="none" stroke="black" d="M88,-84.91C88,-104.14 88,-131.8 88,-131.8 88,-131.8 256.1,-131.8 256.1,-131.8"/>
<polygon fill="black" stroke="black" points="256.1,-135.3 266.1,-131.8 256.1,-128.3 256.1,-135.3"/>
</g>
</g>
</svg>
