<?xml version="1.0" encoding="UTF-8" standalone="no"?>
<!DOCTYPE svg PUBLIC "-//W3C//DTD SVG 1.1//EN"
 "http://www.w3.org/Graphics/SVG/1.1/DTD/svg11.dtd">
<!-- Generated by graphviz version 2.47.3 (20210619.1520)
 -->
<!-- Title: dependencies Pages: 1 -->
<svg width="598pt" height="247pt"
 viewBox="0.00 0.00 598.00 246.80" xmlns="http://www.w3.org/2000/svg" xmlns:xlink="http://www.w3.org/1999/xlink">
<g id="graph0" class="graph" transform="scale(1 1) rotate(0) translate(4 242.8)">
<title>dependencies</title>
<polygon fill="white" stroke="transparent" points="-4,4 -4,-242.8 594,-242.8 594,4 -4,4"/>
<text text-anchor="middle" x="295" y="-8.2" font-family="sans-serif" font-size="14.00">dependencies</text>
<g id="clust1" class="cluster">
<title>cluster_AppModule</title>
<polygon fill="none" stroke="black" stroke-dasharray="1,5" points="8,-32.8 8,-230.8 582,-230.8 582,-32.8 8,-32.8"/>
</g>
<g id="clust6" class="cluster">
<title>cluster_AppModule_imports</title>
<polygon fill="none" stroke="black" points="430,-40.8 430,-92.8 574,-92.8 574,-40.8 430,-40.8"/>
</g>
<g id="clust8" class="cluster">
<title>cluster_AppModule_bootstrap</title>
<polygon fill="none" stroke="black" points="232,-170.8 232,-222.8 356,-222.8 356,-170.8 232,-170.8"/>
</g>
<g id="clust2" class="cluster">
<title>cluster_AppModule_declarations</title>
<polygon fill="none" stroke="black" points="16,-40.8 16,-92.8 422,-92.8 422,-40.8 16,-40.8"/>
</g>
<!-- AppComponent -->
<g id="node1" class="node">
<title>AppComponent</title>
<polygon fill="#ffffb3" stroke="black" points="413.94,-84.8 308.06,-84.8 308.06,-48.8 413.94,-48.8 413.94,-84.8"/>
<text text-anchor="middle" x="361" y="-62.6" font-family="Times,serif" font-size="14.00">AppComponent</text>
</g>
<!-- AppModule -->
<g id="node4" class="node">
<title>AppModule</title>
<polygon fill="#8dd3c7" stroke="black" points="335.66,-149.8 332.66,-153.8 311.66,-153.8 308.66,-149.8 252.34,-149.8 252.34,-113.8 335.66,-113.8 335.66,-149.8"/>
<text text-anchor="middle" x="294" y="-127.6" font-family="Times,serif" font-size="14.00">AppModule</text>
</g>
<!-- AppComponent&#45;&gt;AppModule -->
<g id="edge1" class="edge">
<title>AppComponent&#45;&gt;AppModule</title>
<path fill="none" stroke="black" d="M322.05,-84.91C322.05,-84.91 322.05,-103.79 322.05,-103.79"/>
<polygon fill="black" stroke="black" points="318.55,-103.79 322.05,-113.79 325.55,-103.79 318.55,-103.79"/>
</g>
<!-- ContentComponent -->
<g id="node2" class="node">
<title>ContentComponent</title>
<polygon fill="#ffffb3" stroke="black" points="289.67,-84.8 164.33,-84.8 164.33,-48.8 289.67,-48.8 289.67,-84.8"/>
<text text-anchor="middle" x="227" y="-62.6" font-family="Times,serif" font-size="14.00">ContentComponent</text>
</g>
<!-- ContentComponent&#45;&gt;AppModule -->
<g id="edge2" class="edge">
<title>ContentComponent&#45;&gt;AppModule</title>
<path fill="none" stroke="black" d="M271,-84.91C271,-84.91 271,-103.79 271,-103.79"/>
<polygon fill="black" stroke="black" points="267.5,-103.79 271,-113.79 274.5,-103.79 267.5,-103.79"/>
</g>
<!-- NavbarComponent -->
<g id="node3" class="node">
<title>NavbarComponent</title>
<polygon fill="#ffffb3" stroke="black" points="146.03,-84.8 23.97,-84.8 23.97,-48.8 146.03,-48.8 146.03,-84.8"/>
<text text-anchor="middle" x="85" y="-62.6" font-family="Times,serif" font-size="14.00">NavbarComponent</text>
</g>
<!-- NavbarComponent&#45;&gt;AppModule -->
<g id="edge3" class="edge">
<title>NavbarComponent&#45;&gt;AppModule</title>
<path fill="none" stroke="black" d="M85,-84.91C85,-104.14 85,-131.8 85,-131.8 85,-131.8 242.21,-131.8 242.21,-131.8"/>
<polygon fill="black" stroke="black" points="242.21,-135.3 252.21,-131.8 242.21,-128.3 242.21,-135.3"/>
</g>
<!-- AppComponent  -->
<g id="node6" class="node">
<title>AppComponent </title>
<polygon fill="#80b1d3" stroke="black" points="348.44,-214.8 239.56,-214.8 239.56,-178.8 348.44,-178.8 348.44,-214.8"/>
<text text-anchor="middle" x="294" y="-192.6" font-family="Times,serif" font-size="14.00">AppComponent </text>
</g>
<!-- AppModule&#45;&gt;AppComponent  -->
<g id="edge5" class="edge">
<title>AppModule&#45;&gt;AppComponent </title>
<path fill="none" stroke="black" stroke-dasharray="1,5" d="M294,-149.91C294,-149.91 294,-168.79 294,-168.79"/>
<polygon fill="black" stroke="black" points="290.5,-168.79 294,-178.79 297.5,-168.79 290.5,-168.79"/>
</g>
<!-- AppRoutingModule -->
<g id="node5" class="node">
<title>AppRoutingModule</title>
<polygon fill="#8dd3c7" stroke="black" points="566.27,-84.8 563.27,-88.8 542.27,-88.8 539.27,-84.8 437.73,-84.8 437.73,-48.8 566.27,-48.8 566.27,-84.8"/>
<text text-anchor="middle" x="502" y="-62.6" font-family="Times,serif" font-size="14.00">AppRoutingModule</text>
</g>
<!-- AppRoutingModule&#45;&gt;AppModule -->
<g id="edge4" class="edge">
<title>AppRoutingModule&#45;&gt;AppModule</title>
<path fill="none" stroke="black" d="M502,-84.91C502,-104.14 502,-131.8 502,-131.8 502,-131.8 346.09,-131.8 346.09,-131.8"/>
<polygon fill="black" stroke="black" points="346.09,-128.3 336.09,-131.8 346.09,-135.3 346.09,-128.3"/>
</g>
</g>
</svg>
